<mxfile host="app.diagrams.net" agent="Mozilla/5.0 (Windows NT 10.0; Win64; x64) AppleWebKit/537.36 (KHTML, like Gecko) Chrome/136.0.0.0 Safari/537.36" version="24.8.0">
  <diagram name="Page-1" id="jfIS7xqueMN_NH-ixsL_">
    <mxGraphModel dx="1956" dy="964" grid="1" gridSize="10" guides="1" tooltips="1" connect="1" arrows="1" fold="1" page="1" pageScale="1" pageWidth="1700" pageHeight="1100" math="0" shadow="0">
      <root>
        <mxCell id="0" />
        <mxCell id="1" parent="0" />
        <mxCell id="6g4QMgIBRPuiD7ScBvU_-1" value="&#xa;AI_Impact&#xa;&#xa;" style="shape=table;startSize=80;container=1;collapsible=0;childLayout=tableLayout;strokeColor=default;fontSize=16;" vertex="1" parent="1">
          <mxGeometry x="120" y="380" width="1430" height="169.99999999999932" as="geometry" />
        </mxCell>
        <mxCell id="6g4QMgIBRPuiD7ScBvU_-2" value="" style="shape=tableRow;horizontal=0;startSize=0;swimlaneHead=0;swimlaneBody=0;strokeColor=inherit;top=0;left=0;bottom=0;right=0;collapsible=0;dropTarget=0;fillColor=none;points=[[0,0.5],[1,0.5]];portConstraint=eastwest;fontSize=16;" vertex="1" parent="6g4QMgIBRPuiD7ScBvU_-1">
          <mxGeometry y="80" width="1430" height="90" as="geometry" />
        </mxCell>
        <mxCell id="6g4QMgIBRPuiD7ScBvU_-76" value="Country" style="shape=partialRectangle;html=1;whiteSpace=wrap;connectable=0;strokeColor=inherit;overflow=hidden;fillColor=none;top=0;left=0;bottom=0;right=0;pointerEvents=1;fontSize=16;" vertex="1" parent="6g4QMgIBRPuiD7ScBvU_-2">
          <mxGeometry width="100" height="90" as="geometry">
            <mxRectangle width="100" height="90" as="alternateBounds" />
          </mxGeometry>
        </mxCell>
        <mxCell id="6g4QMgIBRPuiD7ScBvU_-18" value="AI Adoption Rate" style="shape=partialRectangle;html=1;whiteSpace=wrap;connectable=0;strokeColor=inherit;overflow=hidden;fillColor=none;top=0;left=0;bottom=0;right=0;pointerEvents=1;fontSize=16;" vertex="1" parent="6g4QMgIBRPuiD7ScBvU_-2">
          <mxGeometry x="100" width="130" height="90" as="geometry">
            <mxRectangle width="130" height="90" as="alternateBounds" />
          </mxGeometry>
        </mxCell>
        <mxCell id="6g4QMgIBRPuiD7ScBvU_-80" value="Year" style="shape=partialRectangle;html=1;whiteSpace=wrap;connectable=0;strokeColor=inherit;overflow=hidden;fillColor=none;top=0;left=0;bottom=0;right=0;pointerEvents=1;fontSize=16;" vertex="1" parent="6g4QMgIBRPuiD7ScBvU_-2">
          <mxGeometry x="230" width="110" height="90" as="geometry">
            <mxRectangle width="110" height="90" as="alternateBounds" />
          </mxGeometry>
        </mxCell>
        <mxCell id="6g4QMgIBRPuiD7ScBvU_-4" value="AI-Generated Content Volume" style="shape=partialRectangle;html=1;whiteSpace=wrap;connectable=0;strokeColor=inherit;overflow=hidden;fillColor=none;top=0;left=0;bottom=0;right=0;pointerEvents=1;fontSize=16;" vertex="1" parent="6g4QMgIBRPuiD7ScBvU_-2">
          <mxGeometry x="340" width="250" height="90" as="geometry">
            <mxRectangle width="250" height="90" as="alternateBounds" />
          </mxGeometry>
        </mxCell>
        <mxCell id="6g4QMgIBRPuiD7ScBvU_-81" value="&#xa;Industry&#xa;&#xa;" style="shape=partialRectangle;html=1;whiteSpace=wrap;connectable=0;strokeColor=inherit;overflow=hidden;fillColor=none;top=0;left=0;bottom=0;right=0;pointerEvents=1;fontSize=16;" vertex="1" parent="6g4QMgIBRPuiD7ScBvU_-2">
          <mxGeometry x="590" width="140" height="90" as="geometry">
            <mxRectangle width="140" height="90" as="alternateBounds" />
          </mxGeometry>
        </mxCell>
        <mxCell id="6g4QMgIBRPuiD7ScBvU_-30" value="Job Loss Due to AI" style="shape=partialRectangle;html=1;whiteSpace=wrap;connectable=0;strokeColor=inherit;overflow=hidden;fillColor=none;top=0;left=0;bottom=0;right=0;pointerEvents=1;fontSize=16;" vertex="1" parent="6g4QMgIBRPuiD7ScBvU_-2">
          <mxGeometry x="730" width="210" height="90" as="geometry">
            <mxRectangle width="210" height="90" as="alternateBounds" />
          </mxGeometry>
        </mxCell>
        <mxCell id="6g4QMgIBRPuiD7ScBvU_-83" value="Tool" style="shape=partialRectangle;html=1;whiteSpace=wrap;connectable=0;strokeColor=inherit;overflow=hidden;fillColor=none;top=0;left=0;bottom=0;right=0;pointerEvents=1;fontSize=16;" vertex="1" parent="6g4QMgIBRPuiD7ScBvU_-2">
          <mxGeometry x="940" width="110" height="90" as="geometry">
            <mxRectangle width="110" height="90" as="alternateBounds" />
          </mxGeometry>
        </mxCell>
        <mxCell id="6g4QMgIBRPuiD7ScBvU_-27" value="&lt;div style=&quot;&quot;&gt;Market Share of AI Companies&amp;nbsp;&lt;/div&gt;" style="shape=partialRectangle;html=1;whiteSpace=wrap;connectable=0;strokeColor=inherit;overflow=hidden;fillColor=none;top=0;left=0;bottom=0;right=0;pointerEvents=1;fontSize=16;align=center;" vertex="1" parent="6g4QMgIBRPuiD7ScBvU_-2">
          <mxGeometry x="1050" width="230" height="90" as="geometry">
            <mxRectangle width="230" height="90" as="alternateBounds" />
          </mxGeometry>
        </mxCell>
        <mxCell id="6g4QMgIBRPuiD7ScBvU_-24" value="Regulation" style="shape=partialRectangle;html=1;whiteSpace=wrap;connectable=0;strokeColor=inherit;overflow=hidden;fillColor=none;top=0;left=0;bottom=0;right=0;pointerEvents=1;fontSize=16;" vertex="1" parent="6g4QMgIBRPuiD7ScBvU_-2">
          <mxGeometry x="1280" width="150" height="90" as="geometry">
            <mxRectangle width="150" height="90" as="alternateBounds" />
          </mxGeometry>
        </mxCell>
        <mxCell id="6g4QMgIBRPuiD7ScBvU_-60" value="Regulation" style="shape=table;startSize=40;container=1;collapsible=0;childLayout=tableLayout;strokeColor=default;fontSize=16;" vertex="1" parent="1">
          <mxGeometry x="1110" y="160" width="100" height="119.99999999999955" as="geometry" />
        </mxCell>
        <mxCell id="6g4QMgIBRPuiD7ScBvU_-61" value="" style="shape=tableRow;horizontal=0;startSize=0;swimlaneHead=0;swimlaneBody=0;strokeColor=inherit;top=0;left=0;bottom=0;right=0;collapsible=0;dropTarget=0;fillColor=none;points=[[0,0.5],[1,0.5]];portConstraint=eastwest;fontSize=16;" vertex="1" parent="6g4QMgIBRPuiD7ScBvU_-60">
          <mxGeometry y="40" width="100" height="80" as="geometry" />
        </mxCell>
        <mxCell id="6g4QMgIBRPuiD7ScBvU_-62" value="&#xa;Regulation Status&#xa;&#xa;" style="shape=partialRectangle;html=1;whiteSpace=wrap;connectable=0;strokeColor=inherit;overflow=hidden;fillColor=none;top=0;left=0;bottom=0;right=0;pointerEvents=1;fontSize=16;" vertex="1" parent="6g4QMgIBRPuiD7ScBvU_-61">
          <mxGeometry width="100" height="80" as="geometry">
            <mxRectangle width="100" height="80" as="alternateBounds" />
          </mxGeometry>
        </mxCell>
        <mxCell id="6g4QMgIBRPuiD7ScBvU_-84" value="Country" style="shape=table;startSize=40;container=1;collapsible=0;childLayout=tableLayout;strokeColor=default;fontSize=16;" vertex="1" parent="1">
          <mxGeometry x="370" y="160" width="99.99999999999977" height="89.99999999999977" as="geometry" />
        </mxCell>
        <mxCell id="6g4QMgIBRPuiD7ScBvU_-85" value="" style="shape=tableRow;horizontal=0;startSize=0;swimlaneHead=0;swimlaneBody=0;strokeColor=inherit;top=0;left=0;bottom=0;right=0;collapsible=0;dropTarget=0;fillColor=none;points=[[0,0.5],[1,0.5]];portConstraint=eastwest;fontSize=16;" vertex="1" parent="6g4QMgIBRPuiD7ScBvU_-84">
          <mxGeometry y="40" width="99.99999999999977" height="50" as="geometry" />
        </mxCell>
        <mxCell id="6g4QMgIBRPuiD7ScBvU_-86" value="Country" style="shape=partialRectangle;html=1;whiteSpace=wrap;connectable=0;strokeColor=inherit;overflow=hidden;fillColor=none;top=0;left=0;bottom=0;right=0;pointerEvents=1;fontSize=16;" vertex="1" parent="6g4QMgIBRPuiD7ScBvU_-85">
          <mxGeometry width="100" height="50" as="geometry">
            <mxRectangle width="100" height="50" as="alternateBounds" />
          </mxGeometry>
        </mxCell>
        <mxCell id="6g4QMgIBRPuiD7ScBvU_-87" value="Tool" style="shape=table;startSize=40;container=1;collapsible=0;childLayout=tableLayout;strokeColor=default;fontSize=16;" vertex="1" parent="1">
          <mxGeometry x="1010" y="660" width="110" height="120" as="geometry" />
        </mxCell>
        <mxCell id="6g4QMgIBRPuiD7ScBvU_-88" value="" style="shape=tableRow;horizontal=0;startSize=0;swimlaneHead=0;swimlaneBody=0;strokeColor=inherit;top=0;left=0;bottom=0;right=0;collapsible=0;dropTarget=0;fillColor=none;points=[[0,0.5],[1,0.5]];portConstraint=eastwest;fontSize=16;" vertex="1" parent="6g4QMgIBRPuiD7ScBvU_-87">
          <mxGeometry y="40" width="110" height="80" as="geometry" />
        </mxCell>
        <mxCell id="6g4QMgIBRPuiD7ScBvU_-89" value="Top AI Tool Used" style="shape=partialRectangle;html=1;whiteSpace=wrap;connectable=0;strokeColor=inherit;overflow=hidden;fillColor=none;top=0;left=0;bottom=0;right=0;pointerEvents=1;fontSize=16;" vertex="1" parent="6g4QMgIBRPuiD7ScBvU_-88">
          <mxGeometry width="110" height="80" as="geometry">
            <mxRectangle width="110" height="80" as="alternateBounds" />
          </mxGeometry>
        </mxCell>
        <mxCell id="6g4QMgIBRPuiD7ScBvU_-90" value="Industry" style="shape=table;startSize=40;container=1;collapsible=0;childLayout=tableLayout;strokeColor=default;fontSize=16;" vertex="1" parent="1">
          <mxGeometry x="710" y="180" width="130" height="119.99999999999977" as="geometry" />
        </mxCell>
        <mxCell id="6g4QMgIBRPuiD7ScBvU_-91" value="" style="shape=tableRow;horizontal=0;startSize=0;swimlaneHead=0;swimlaneBody=0;strokeColor=inherit;top=0;left=0;bottom=0;right=0;collapsible=0;dropTarget=0;fillColor=none;points=[[0,0.5],[1,0.5]];portConstraint=eastwest;fontSize=16;" vertex="1" parent="6g4QMgIBRPuiD7ScBvU_-90">
          <mxGeometry y="40" width="130" height="80" as="geometry" />
        </mxCell>
        <mxCell id="6g4QMgIBRPuiD7ScBvU_-92" value="Industry Sector" style="shape=partialRectangle;html=1;whiteSpace=wrap;connectable=0;strokeColor=inherit;overflow=hidden;fillColor=none;top=0;left=0;bottom=0;right=0;pointerEvents=1;fontSize=16;" vertex="1" parent="6g4QMgIBRPuiD7ScBvU_-91">
          <mxGeometry width="130" height="80" as="geometry">
            <mxRectangle width="130" height="80" as="alternateBounds" />
          </mxGeometry>
        </mxCell>
        <mxCell id="6g4QMgIBRPuiD7ScBvU_-105" value="" style="endArrow=none;html=1;rounded=0;entryX=0.25;entryY=0;entryDx=0;entryDy=0;exitX=0.188;exitY=1.011;exitDx=0;exitDy=0;exitPerimeter=0;" edge="1" parent="1" source="6g4QMgIBRPuiD7ScBvU_-2" target="6g4QMgIBRPuiD7ScBvU_-110">
          <mxGeometry relative="1" as="geometry">
            <mxPoint x="410" y="560" as="sourcePoint" />
            <mxPoint x="555" y="650" as="targetPoint" />
          </mxGeometry>
        </mxCell>
        <mxCell id="6g4QMgIBRPuiD7ScBvU_-106" value="" style="endArrow=none;html=1;rounded=0;entryX=0.024;entryY=0;entryDx=0;entryDy=0;entryPerimeter=0;" edge="1" parent="1" source="6g4QMgIBRPuiD7ScBvU_-85" target="6g4QMgIBRPuiD7ScBvU_-1">
          <mxGeometry relative="1" as="geometry">
            <mxPoint x="130" y="300" as="sourcePoint" />
            <mxPoint x="296" y="399" as="targetPoint" />
          </mxGeometry>
        </mxCell>
        <mxCell id="6g4QMgIBRPuiD7ScBvU_-107" value="" style="endArrow=none;html=1;rounded=0;exitX=0.471;exitY=0.003;exitDx=0;exitDy=0;exitPerimeter=0;entryX=0.638;entryY=1.033;entryDx=0;entryDy=0;entryPerimeter=0;" edge="1" parent="1" source="6g4QMgIBRPuiD7ScBvU_-1" target="6g4QMgIBRPuiD7ScBvU_-91">
          <mxGeometry relative="1" as="geometry">
            <mxPoint x="780" y="370" as="sourcePoint" />
            <mxPoint x="794" y="290" as="targetPoint" />
          </mxGeometry>
        </mxCell>
        <mxCell id="6g4QMgIBRPuiD7ScBvU_-108" value="" style="endArrow=none;html=1;rounded=0;entryX=0.715;entryY=1.011;entryDx=0;entryDy=0;entryPerimeter=0;exitX=0.25;exitY=0;exitDx=0;exitDy=0;" edge="1" parent="1" source="6g4QMgIBRPuiD7ScBvU_-87" target="6g4QMgIBRPuiD7ScBvU_-2">
          <mxGeometry relative="1" as="geometry">
            <mxPoint x="1110" y="620" as="sourcePoint" />
            <mxPoint x="1270" y="620" as="targetPoint" />
          </mxGeometry>
        </mxCell>
        <mxCell id="6g4QMgIBRPuiD7ScBvU_-109" value="" style="endArrow=none;html=1;rounded=0;entryX=0.935;entryY=-0.017;entryDx=0;entryDy=0;entryPerimeter=0;exitX=0.589;exitY=1.048;exitDx=0;exitDy=0;exitPerimeter=0;" edge="1" parent="1" source="6g4QMgIBRPuiD7ScBvU_-61" target="6g4QMgIBRPuiD7ScBvU_-1">
          <mxGeometry relative="1" as="geometry">
            <mxPoint x="1230" y="230" as="sourcePoint" />
            <mxPoint x="1444" y="551" as="targetPoint" />
          </mxGeometry>
        </mxCell>
        <mxCell id="6g4QMgIBRPuiD7ScBvU_-110" value="Year" style="shape=table;startSize=30;container=1;collapsible=0;childLayout=tableLayout;strokeColor=default;fontSize=16;" vertex="1" parent="1">
          <mxGeometry x="500" y="670" width="110" height="90" as="geometry" />
        </mxCell>
        <mxCell id="6g4QMgIBRPuiD7ScBvU_-111" value="" style="shape=tableRow;horizontal=0;startSize=0;swimlaneHead=0;swimlaneBody=0;strokeColor=inherit;top=0;left=0;bottom=0;right=0;collapsible=0;dropTarget=0;fillColor=none;points=[[0,0.5],[1,0.5]];portConstraint=eastwest;fontSize=16;" vertex="1" parent="6g4QMgIBRPuiD7ScBvU_-110">
          <mxGeometry y="30" width="110" height="60" as="geometry" />
        </mxCell>
        <mxCell id="6g4QMgIBRPuiD7ScBvU_-112" value="Year" style="shape=partialRectangle;html=1;whiteSpace=wrap;connectable=0;strokeColor=inherit;overflow=hidden;fillColor=none;top=0;left=0;bottom=0;right=0;pointerEvents=1;fontSize=16;" vertex="1" parent="6g4QMgIBRPuiD7ScBvU_-111">
          <mxGeometry width="110" height="60" as="geometry">
            <mxRectangle width="110" height="60" as="alternateBounds" />
          </mxGeometry>
        </mxCell>
      </root>
    </mxGraphModel>
  </diagram>
</mxfile>
